<mxfile host="app.diagrams.net" agent="Mozilla/5.0 (Windows NT 10.0; Win64; x64) AppleWebKit/537.36 (KHTML, like Gecko) Chrome/141.0.0.0 Safari/537.36" version="28.2.7">
  <diagram name="Page-1" id="pmu2NTO3DL5r1S8cYswL">
    <mxGraphModel dx="2329" dy="958" grid="1" gridSize="10" guides="1" tooltips="1" connect="1" arrows="1" fold="1" page="1" pageScale="1" pageWidth="850" pageHeight="1100" math="0" shadow="0">
      <root>
        <mxCell id="0" />
        <mxCell id="1" parent="0" />
        <mxCell id="_7teqYTYReIMX6gkizzP-1" value="Start" style="ellipse;whiteSpace=wrap;html=1;fillColor=#EB0000;" vertex="1" parent="1">
          <mxGeometry x="390" y="30" width="70" height="40" as="geometry" />
        </mxCell>
        <mxCell id="_7teqYTYReIMX6gkizzP-2" value="" style="endArrow=classic;html=1;rounded=0;exitX=0.5;exitY=1;exitDx=0;exitDy=0;" edge="1" parent="1" source="_7teqYTYReIMX6gkizzP-1">
          <mxGeometry width="50" height="50" relative="1" as="geometry">
            <mxPoint x="400" y="270" as="sourcePoint" />
            <mxPoint x="425" y="100" as="targetPoint" />
          </mxGeometry>
        </mxCell>
        <mxCell id="_7teqYTYReIMX6gkizzP-5" style="edgeStyle=orthogonalEdgeStyle;rounded=0;orthogonalLoop=1;jettySize=auto;html=1;" edge="1" parent="1" source="_7teqYTYReIMX6gkizzP-4">
          <mxGeometry relative="1" as="geometry">
            <mxPoint x="425" y="190" as="targetPoint" />
          </mxGeometry>
        </mxCell>
        <mxCell id="_7teqYTYReIMX6gkizzP-4" value="System Planning &amp;amp; Design" style="rounded=0;whiteSpace=wrap;html=1;fillColor=#66B2FF;" vertex="1" parent="1">
          <mxGeometry x="365" y="100" width="120" height="60" as="geometry" />
        </mxCell>
        <mxCell id="_7teqYTYReIMX6gkizzP-8" style="edgeStyle=orthogonalEdgeStyle;rounded=0;orthogonalLoop=1;jettySize=auto;html=1;" edge="1" parent="1" source="_7teqYTYReIMX6gkizzP-6">
          <mxGeometry relative="1" as="geometry">
            <mxPoint x="425" y="280" as="targetPoint" />
          </mxGeometry>
        </mxCell>
        <mxCell id="_7teqYTYReIMX6gkizzP-6" value="&lt;font style=&quot;font-size: 11px;&quot;&gt;&amp;nbsp; &amp;nbsp;System Development&amp;nbsp;&lt;/font&gt;&lt;div&gt;&lt;font style=&quot;font-size: 11px;&quot;&gt;(Backend &amp;amp; UI)&lt;/font&gt;&lt;/div&gt;" style="shape=parallelogram;perimeter=parallelogramPerimeter;whiteSpace=wrap;html=1;fixedSize=1;fillColor=#FFFF99;align=center;" vertex="1" parent="1">
          <mxGeometry x="355" y="190" width="140" height="60" as="geometry" />
        </mxCell>
        <mxCell id="_7teqYTYReIMX6gkizzP-18" style="edgeStyle=orthogonalEdgeStyle;rounded=0;orthogonalLoop=1;jettySize=auto;html=1;entryX=0.5;entryY=0;entryDx=0;entryDy=0;" edge="1" parent="1" source="_7teqYTYReIMX6gkizzP-9" target="_7teqYTYReIMX6gkizzP-10">
          <mxGeometry relative="1" as="geometry" />
        </mxCell>
        <mxCell id="_7teqYTYReIMX6gkizzP-9" value="&lt;span style=&quot;font-size: 11px;&quot;&gt;Integrate Security&lt;/span&gt;" style="shape=parallelogram;perimeter=parallelogramPerimeter;whiteSpace=wrap;html=1;fixedSize=1;fillColor=#FFFF99;align=center;" vertex="1" parent="1">
          <mxGeometry x="355" y="280" width="140" height="60" as="geometry" />
        </mxCell>
        <mxCell id="_7teqYTYReIMX6gkizzP-19" style="edgeStyle=orthogonalEdgeStyle;rounded=0;orthogonalLoop=1;jettySize=auto;html=1;" edge="1" parent="1" source="_7teqYTYReIMX6gkizzP-10">
          <mxGeometry relative="1" as="geometry">
            <mxPoint x="425.5" y="490" as="targetPoint" />
          </mxGeometry>
        </mxCell>
        <mxCell id="_7teqYTYReIMX6gkizzP-10" value="&lt;span style=&quot;font-size: 11px;&quot;&gt;Mapping of Tags:&lt;br&gt;&lt;/span&gt;&lt;div style=&quot;text-align: left;&quot;&gt;&lt;span style=&quot;font-size: 11px;&quot;&gt;- Subject&lt;/span&gt;&lt;/div&gt;&lt;div style=&quot;text-align: left;&quot;&gt;&lt;span style=&quot;font-size: 11px;&quot;&gt;- Learning Outcomes&lt;/span&gt;&lt;/div&gt;&lt;div style=&quot;text-align: left;&quot;&gt;&lt;span style=&quot;font-size: 11px;&quot;&gt;- Difficulty Level&lt;/span&gt;&lt;/div&gt;&lt;div style=&quot;text-align: left;&quot;&gt;&lt;span style=&quot;font-size: 11px;&quot;&gt;- Cognitive Level&lt;/span&gt;&lt;/div&gt;" style="shape=parallelogram;perimeter=parallelogramPerimeter;whiteSpace=wrap;html=1;fixedSize=1;fillColor=#FFFF99;align=center;" vertex="1" parent="1">
          <mxGeometry x="348" y="370" width="155" height="90" as="geometry" />
        </mxCell>
        <mxCell id="_7teqYTYReIMX6gkizzP-21" style="edgeStyle=orthogonalEdgeStyle;rounded=0;orthogonalLoop=1;jettySize=auto;html=1;" edge="1" parent="1" source="_7teqYTYReIMX6gkizzP-17">
          <mxGeometry relative="1" as="geometry">
            <mxPoint x="425.5" y="580" as="targetPoint" />
          </mxGeometry>
        </mxCell>
        <mxCell id="_7teqYTYReIMX6gkizzP-17" value="&lt;font style=&quot;font-size: 12px;&quot;&gt;Exam Generation&lt;/font&gt;&lt;div&gt;&lt;font style=&quot;font-size: 12px;&quot;&gt;Module&lt;/font&gt;&lt;/div&gt;" style="rounded=0;whiteSpace=wrap;html=1;fillColor=#66B2FF;" vertex="1" parent="1">
          <mxGeometry x="365.5" y="490" width="120" height="60" as="geometry" />
        </mxCell>
        <mxCell id="_7teqYTYReIMX6gkizzP-23" style="edgeStyle=orthogonalEdgeStyle;rounded=0;orthogonalLoop=1;jettySize=auto;html=1;" edge="1" parent="1" source="_7teqYTYReIMX6gkizzP-20">
          <mxGeometry relative="1" as="geometry">
            <mxPoint x="425" y="670" as="targetPoint" />
          </mxGeometry>
        </mxCell>
        <mxCell id="_7teqYTYReIMX6gkizzP-20" value="&lt;span style=&quot;font-size: 11px;&quot;&gt;Filter by Outcome/&lt;/span&gt;&lt;div&gt;&lt;span style=&quot;font-size: 11px;&quot;&gt;Difficulty/Tags&lt;/span&gt;&lt;/div&gt;" style="shape=parallelogram;perimeter=parallelogramPerimeter;whiteSpace=wrap;html=1;fixedSize=1;fillColor=#FFFF99;align=center;" vertex="1" parent="1">
          <mxGeometry x="355" y="580" width="140" height="60" as="geometry" />
        </mxCell>
        <mxCell id="_7teqYTYReIMX6gkizzP-24" style="edgeStyle=orthogonalEdgeStyle;rounded=0;orthogonalLoop=1;jettySize=auto;html=1;" edge="1" parent="1" source="_7teqYTYReIMX6gkizzP-22">
          <mxGeometry relative="1" as="geometry">
            <mxPoint x="425.5" y="760" as="targetPoint" />
          </mxGeometry>
        </mxCell>
        <mxCell id="_7teqYTYReIMX6gkizzP-22" value="Auto-Generate&lt;div&gt;Exam Versions&lt;/div&gt;" style="rounded=0;whiteSpace=wrap;html=1;fillColor=#66B2FF;" vertex="1" parent="1">
          <mxGeometry x="365.5" y="670" width="120" height="60" as="geometry" />
        </mxCell>
        <mxCell id="_7teqYTYReIMX6gkizzP-26" style="edgeStyle=orthogonalEdgeStyle;rounded=0;orthogonalLoop=1;jettySize=auto;html=1;" edge="1" parent="1" source="_7teqYTYReIMX6gkizzP-25">
          <mxGeometry relative="1" as="geometry">
            <mxPoint x="425" y="850" as="targetPoint" />
          </mxGeometry>
        </mxCell>
        <mxCell id="_7teqYTYReIMX6gkizzP-25" value="User Testing" style="rounded=0;whiteSpace=wrap;html=1;fillColor=#66B2FF;" vertex="1" parent="1">
          <mxGeometry x="365" y="760" width="120" height="60" as="geometry" />
        </mxCell>
        <mxCell id="_7teqYTYReIMX6gkizzP-30" style="edgeStyle=orthogonalEdgeStyle;rounded=0;orthogonalLoop=1;jettySize=auto;html=1;" edge="1" parent="1" source="_7teqYTYReIMX6gkizzP-28">
          <mxGeometry relative="1" as="geometry">
            <mxPoint x="425.5" y="940" as="targetPoint" />
          </mxGeometry>
        </mxCell>
        <mxCell id="_7teqYTYReIMX6gkizzP-28" value="&lt;span style=&quot;font-size: 11px;&quot;&gt;User Feedback &amp;amp; Evaluation&lt;/span&gt;" style="shape=parallelogram;perimeter=parallelogramPerimeter;whiteSpace=wrap;html=1;fixedSize=1;fillColor=#FFFF99;align=center;" vertex="1" parent="1">
          <mxGeometry x="355.5" y="850" width="140" height="60" as="geometry" />
        </mxCell>
        <mxCell id="_7teqYTYReIMX6gkizzP-31" style="edgeStyle=orthogonalEdgeStyle;rounded=0;orthogonalLoop=1;jettySize=auto;html=1;" edge="1" parent="1" source="_7teqYTYReIMX6gkizzP-29">
          <mxGeometry relative="1" as="geometry">
            <mxPoint x="425" y="1030" as="targetPoint" />
          </mxGeometry>
        </mxCell>
        <mxCell id="_7teqYTYReIMX6gkizzP-29" value="Final System Packaging" style="rounded=0;whiteSpace=wrap;html=1;fillColor=#66B2FF;" vertex="1" parent="1">
          <mxGeometry x="365" y="940" width="120" height="60" as="geometry" />
        </mxCell>
        <mxCell id="_7teqYTYReIMX6gkizzP-32" value="End" style="ellipse;whiteSpace=wrap;html=1;fillColor=#EB0000;" vertex="1" parent="1">
          <mxGeometry x="390" y="1030" width="70" height="40" as="geometry" />
        </mxCell>
      </root>
    </mxGraphModel>
  </diagram>
</mxfile>
